<svg width="22" height="24" viewBox="0 0 22 24" fill="none" xmlns="http://www.w3.org/2000/svg">
<path d="M21.056 5.99963C20.889 5.70963 20.658 5.45663 20.404 5.30963L11.588 0.219628C11.08 -0.0733721 10.249 -0.0733721 9.741 0.219628L0.923 5.30963C0.415 5.60263 0 6.32263 0 6.90963V17.0896C0 17.3836 0.104 17.7096 0.271 17.9996C0.438 18.2896 0.669 18.5426 0.923 18.6886L9.739 23.7796C10.247 24.0726 11.078 24.0726 11.586 23.7796L20.402 18.6886C20.656 18.5426 20.887 18.2896 21.054 17.9996C21.221 17.7096 21.325 17.3836 21.325 17.0896V6.90963C21.327 6.61563 21.223 6.28963 21.056 5.99963ZM10.663 19.1086C6.743 19.1086 3.554 15.9196 3.554 11.9996C3.554 8.07963 6.743 4.89063 10.663 4.89063C11.9101 4.8929 13.1347 5.22207 14.2149 5.84531C15.2951 6.46856 16.1929 7.3641 16.819 8.44263L13.743 10.2236C13.4301 9.68355 12.981 9.23502 12.4406 8.92284C11.9001 8.61066 11.2872 8.44577 10.663 8.44463C8.703 8.44463 7.109 10.0396 7.109 11.9996C7.109 13.9596 8.703 15.5546 10.663 15.5546C11.287 15.5533 11.8997 15.3884 12.4402 15.0765C12.9806 14.7645 13.4298 14.3163 13.743 13.7766L16.82 15.5566C16.1937 16.6352 15.2956 17.5307 14.2153 18.1539C13.135 18.7772 11.9102 19.1063 10.663 19.1086ZM17.772 12.3946H16.982V13.1846H16.192V12.3946H15.402V11.6046H16.192V10.8146H16.982V11.6046H17.772V12.3946ZM20.734 12.3946H19.944V13.1846H19.154V12.3946H18.365V11.6046H19.154V10.8146H19.944V11.6046H20.734V12.3946Z" fill="#000AFF"/>
</svg>
