<svg width="22" height="20" viewBox="0 0 22 20" fill="none" xmlns="http://www.w3.org/2000/svg">
<path d="M11.65 13.6699C11.79 13.3099 11.7 12.8999 11.42 12.6199L9.33 10.5599L9.36 10.5299C11.1 8.58988 12.34 6.35988 13.07 3.99988H15.01C15.55 3.99988 16 3.54988 16 3.00988V2.98988C16 2.44988 15.55 1.99988 15.01 1.99988H9V0.999878C9 0.449878 8.55 -0.00012207 8 -0.00012207C7.45 -0.00012207 7 0.449878 7 0.999878V1.99988H0.99C0.45 1.99988 0 2.44988 0 2.98988C0 3.53988 0.45 3.97988 0.99 3.97988H11.17C10.5 5.91988 9.44 7.74988 8 9.34988C7.19 8.45988 6.51 7.48988 5.94 6.46988C5.78 6.17988 5.49 5.99988 5.16 5.99988C4.47 5.99988 4.03 6.74988 4.37 7.34988C5 8.47988 5.77 9.55988 6.67 10.5599L2.3 14.8699C1.9 15.2599 1.9 15.8999 2.3 16.2899C2.69 16.6799 3.32 16.6799 3.72 16.2899L8 11.9999L10.02 14.0199C10.53 14.5299 11.4 14.3399 11.65 13.6699ZM16.5 7.99988C15.9 7.99988 15.36 8.36988 15.15 8.93988L11.48 18.7399C11.24 19.3499 11.7 19.9999 12.35 19.9999C12.74 19.9999 13.09 19.7599 13.23 19.3899L14.12 16.9999H18.87L19.77 19.3899C19.91 19.7499 20.26 19.9999 20.65 19.9999C21.3 19.9999 21.76 19.3499 21.53 18.7399L17.86 8.93988C17.64 8.36988 17.1 7.99988 16.5 7.99988ZM14.88 14.9999L16.5 10.6699L18.12 14.9999H14.88Z" fill="url(#paint0_linear_35_220)"/>
<defs>
<linearGradient id="paint0_linear_35_220" x1="10.795" y1="-0.00012207" x2="10.795" y2="19.9999" gradientUnits="userSpaceOnUse">
<stop stop-color="#B6F829"/>
<stop offset="1" stop-color="#67DD0A"/>
</linearGradient>
</defs>
</svg>
