<svg width="24" height="24" viewBox="0 0 24 24" fill="none" xmlns="http://www.w3.org/2000/svg">
<path d="M0 -0.00012207H24V23.9999H0V-0.00012207ZM22.034 18.2759C21.859 17.1809 21.146 16.2609 19.031 15.4029C18.295 15.0579 17.477 14.8179 17.234 14.2629C17.143 13.9329 17.129 13.7529 17.188 13.5579C17.338 12.9119 18.103 12.7179 18.703 12.8979C19.093 13.0179 19.453 13.3179 19.679 13.7979C20.713 13.1219 20.713 13.1219 21.434 12.6729C21.164 12.2529 21.03 12.0719 20.848 11.8929C20.218 11.1879 19.379 10.8279 18.014 10.8589L17.309 10.9479C16.633 11.1129 15.989 11.4729 15.599 11.9529C14.459 13.2439 14.788 15.4939 16.168 16.4239C17.533 17.4439 19.529 17.6679 19.784 18.6289C20.024 19.7989 18.914 20.1739 17.818 20.0389C17.007 19.8589 16.558 19.4529 16.063 18.7029L14.233 19.7539C14.443 20.2339 14.683 20.4429 15.043 20.8629C16.783 22.6189 21.133 22.5289 21.914 19.8589C21.943 19.7689 22.154 19.1539 21.988 18.2089L22.034 18.2759ZM13.051 11.0309H10.803C10.803 12.9689 10.794 14.8949 10.794 16.8359C10.794 18.0679 10.857 19.1989 10.656 19.5469C10.326 20.2359 9.476 20.1479 9.09 20.0269C8.694 19.8309 8.493 19.5609 8.26 19.1719C8.197 19.0669 8.15 18.9759 8.133 18.9759L6.308 20.1009C6.613 20.7309 7.058 21.2729 7.632 21.6179C8.487 22.1279 9.636 22.2929 10.839 22.0229C11.622 21.7969 12.297 21.3319 12.65 20.6119C13.16 19.6819 13.052 18.5419 13.047 17.2659C13.059 15.2119 13.047 13.1569 13.047 11.0869L13.051 11.0309Z" fill="#FAFF00"/>
</svg>
