<svg width="27" height="37" viewBox="0 0 27 37" fill="none" xmlns="http://www.w3.org/2000/svg">
<path fill-rule="evenodd" clip-rule="evenodd" d="M26.0416 13.1249C26.0416 6.20912 20.4158 0.583282 13.5 0.583282C6.58415 0.583282 0.958313 6.20912 0.958313 13.1249C0.958313 22.5312 13.5 36.4166 13.5 36.4166C13.5 36.4166 26.0416 22.5312 26.0416 13.1249ZM22.4942 10.3479L10.7587 22.0833L4.50582 15.8483L7.04999 13.3041L10.7767 17.0129L19.9679 7.80372L22.4942 10.3479Z" fill="#14D8FF"/>
<path d="M13.5 36.4166L13.3145 36.5842L13.5 36.7896L13.6855 36.5842L13.5 36.4166ZM10.7587 22.0833L10.5822 22.2603L10.759 22.4366L10.9355 22.2601L10.7587 22.0833ZM22.4942 10.3479L22.6709 10.5247L22.8471 10.3485L22.6716 10.1717L22.4942 10.3479ZM4.50582 15.8483L4.32905 15.6715L4.15201 15.8486L4.3293 16.0253L4.50582 15.8483ZM7.04999 13.3041L7.22634 13.1269L7.04956 12.951L6.87321 13.1274L7.04999 13.3041ZM10.7767 17.0129L10.6003 17.1901L10.7773 17.3662L10.9536 17.1895L10.7767 17.0129ZM19.9679 7.80372L20.1453 7.62757L19.9684 7.44937L19.791 7.62712L19.9679 7.80372ZM13.5 0.833282C20.2777 0.833282 25.7916 6.34719 25.7916 13.1249H26.2916C26.2916 6.07105 20.5539 0.333282 13.5 0.333282V0.833282ZM1.20831 13.1249C1.20831 6.34719 6.72222 0.833282 13.5 0.833282V0.333282C6.44608 0.333282 0.708313 6.07105 0.708313 13.1249H1.20831ZM13.5 36.4166C13.6855 36.249 13.6855 36.249 13.6854 36.249C13.6853 36.2489 13.6852 36.2487 13.685 36.2485C13.6847 36.2482 13.6842 36.2476 13.6834 36.2468C13.682 36.2452 13.6798 36.2427 13.6769 36.2394C13.671 36.2329 13.6621 36.223 13.6504 36.2099C13.627 36.1837 13.5921 36.1445 13.5465 36.0929C13.4553 35.9896 13.3212 35.8366 13.1505 35.6384C12.8089 35.242 12.3206 34.6648 11.7345 33.9425C10.5619 32.4977 8.9989 30.4742 7.43639 28.1583C5.8734 25.8417 4.314 23.2372 3.1461 20.6303C1.97674 18.0201 1.20831 15.4259 1.20831 13.1249H0.708313C0.708313 15.5271 1.5076 18.1959 2.6898 20.8347C3.87346 23.4769 5.44948 26.1074 7.02191 28.438C8.59481 30.7692 10.1672 32.8049 11.3462 34.2576C11.9358 34.9841 12.4273 35.5651 12.7717 35.9648C12.9439 36.1646 13.0793 36.3192 13.1718 36.4239C13.218 36.4762 13.2535 36.5162 13.2776 36.5431C13.2896 36.5565 13.2987 36.5667 13.3049 36.5736C13.308 36.577 13.3104 36.5796 13.3119 36.5814C13.3127 36.5823 13.3134 36.583 13.3138 36.5834C13.314 36.5837 13.3142 36.5839 13.3143 36.584C13.3144 36.5841 13.3145 36.5842 13.5 36.4166ZM25.7916 13.1249C25.7916 15.4259 25.0232 18.0201 23.8539 20.6303C22.686 23.2372 21.1266 25.8417 19.5636 28.1583C18.0011 30.4742 16.4381 32.4977 15.2655 33.9425C14.6793 34.6648 14.191 35.242 13.8495 35.6384C13.6787 35.8366 13.5447 35.9896 13.4535 36.0929C13.4079 36.1445 13.373 36.1837 13.3495 36.2099C13.3378 36.223 13.329 36.2329 13.3231 36.2394C13.3202 36.2427 13.318 36.2452 13.3165 36.2468C13.3158 36.2476 13.3153 36.2482 13.3149 36.2485C13.3147 36.2487 13.3146 36.2489 13.3145 36.249C13.3145 36.249 13.3145 36.249 13.5 36.4166C13.6855 36.5842 13.6856 36.5841 13.6857 36.584C13.6858 36.5839 13.686 36.5837 13.6862 36.5834C13.6866 36.583 13.6872 36.5823 13.688 36.5814C13.6896 36.5796 13.692 36.577 13.695 36.5736C13.7012 36.5667 13.7104 36.5565 13.7224 36.5431C13.7464 36.5162 13.782 36.4762 13.8282 36.4239C13.9207 36.3192 14.0561 36.1646 14.2283 35.9648C14.5726 35.5651 15.0641 34.9841 15.6537 34.2576C16.8327 32.8049 18.4051 30.7692 19.9781 28.438C21.5505 26.1074 23.1265 23.4769 24.3102 20.8347C25.4924 18.1959 26.2916 15.5271 26.2916 13.1249H25.7916ZM10.9355 22.2601L22.6709 10.5247L22.3174 10.1711L10.582 21.9065L10.9355 22.2601ZM4.3293 16.0253L10.5822 22.2603L10.9353 21.9063L4.68235 15.6713L4.3293 16.0253ZM6.87321 13.1274L4.32905 15.6715L4.6826 16.0251L7.22677 13.4809L6.87321 13.1274ZM10.953 16.8357L7.22634 13.1269L6.87364 13.4813L10.6003 17.1901L10.953 16.8357ZM19.791 7.62712L10.5997 16.8363L10.9536 17.1895L20.1449 7.98033L19.791 7.62712ZM22.6716 10.1717L20.1453 7.62757L19.7905 7.97987L22.3168 10.524L22.6716 10.1717Z" fill="black"/>
</svg>
