<svg width="35" height="32" viewBox="0 0 35 32" fill="none" xmlns="http://www.w3.org/2000/svg">
<path fill-rule="evenodd" clip-rule="evenodd" d="M14.7083 15.5C18.6679 15.5 21.875 12.2929 21.875 8.33329C21.875 4.37371 18.6679 1.16663 14.7083 1.16663C10.7487 1.16663 7.54167 4.37371 7.54167 8.33329C7.54167 12.2929 10.7487 15.5 14.7083 15.5ZM11.125 24.4583L16.5 19.1908C15.8012 19.1191 15.2817 19.0833 14.7083 19.0833C9.92458 19.0833 0.375 21.4841 0.375 26.25V29.8333H16.5L11.125 24.4583ZM16.5 24.4583L22.7171 30.7291L34.4167 18.922L31.9083 16.3958L22.7171 25.6587L19.0083 21.932L16.5 24.4583Z" fill="#14D8FF"/>
<path d="M16.5 19.1908L16.675 19.3693L17.0555 18.9965L16.5255 18.9421L16.5 19.1908ZM11.125 24.4583L10.95 24.2797L10.7697 24.4565L10.9482 24.6351L11.125 24.4583ZM0.375 29.8333H0.125V30.0833H0.375V29.8333ZM16.5 29.8333V30.0833H17.1036L16.6768 29.6565L16.5 29.8333ZM22.7171 30.7291L22.5395 30.9051L22.7171 31.0843L22.8947 30.9051L22.7171 30.7291ZM16.5 24.4583L16.3226 24.2821L16.1478 24.4582L16.3225 24.6343L16.5 24.4583ZM34.4167 18.922L34.5942 19.098L34.7688 18.9219L34.5941 18.7459L34.4167 18.922ZM31.9083 16.3958L32.0857 16.2196L31.9083 16.0409L31.7309 16.2197L31.9083 16.3958ZM22.7171 25.6587L22.5399 25.8351L22.7173 26.0134L22.8945 25.8348L22.7171 25.6587ZM19.0083 21.932L19.1855 21.7557L19.0081 21.5774L18.8309 21.7559L19.0083 21.932ZM21.625 8.33329C21.625 12.1548 18.5298 15.25 14.7083 15.25V15.75C18.806 15.75 22.125 12.4309 22.125 8.33329H21.625ZM14.7083 1.41663C18.5298 1.41663 21.625 4.51178 21.625 8.33329H22.125C22.125 4.23564 18.806 0.916626 14.7083 0.916626V1.41663ZM7.79167 8.33329C7.79167 4.51178 10.8868 1.41663 14.7083 1.41663V0.916626C10.6107 0.916626 7.29167 4.23564 7.29167 8.33329H7.79167ZM14.7083 15.25C10.8868 15.25 7.79167 12.1548 7.79167 8.33329H7.29167C7.29167 12.4309 10.6107 15.75 14.7083 15.75V15.25ZM16.325 19.0122L10.95 24.2797L11.3 24.6368L16.675 19.3693L16.325 19.0122ZM14.7083 19.3333C15.2699 19.3333 15.7802 19.3683 16.4745 19.4395L16.5255 18.9421C15.8223 18.87 15.2934 18.8333 14.7083 18.8333V19.3333ZM0.625 26.25C0.625 25.1503 1.17387 24.1686 2.11143 23.3033C3.05068 22.4364 4.3633 21.7034 5.84073 21.1115C8.79598 19.9276 12.3477 19.3333 14.7083 19.3333V18.8333C12.2852 18.8333 8.67027 19.4394 5.65479 20.6474C4.14685 21.2514 2.77309 22.0122 1.77231 22.9359C0.769831 23.8611 0.125 24.9667 0.125 26.25H0.625ZM0.625 29.8333V26.25H0.125V29.8333H0.625ZM16.5 29.5833H0.375V30.0833H16.5V29.5833ZM10.9482 24.6351L16.3232 30.0101L16.6768 29.6565L11.3018 24.2815L10.9482 24.6351ZM22.8946 30.5531L16.6775 24.2823L16.3225 24.6343L22.5395 30.9051L22.8946 30.5531ZM34.2391 18.7461L22.5395 30.5532L22.8947 30.9051L34.5942 19.098L34.2391 18.7461ZM31.7309 16.5719L34.2393 19.0982L34.5941 18.7459L32.0857 16.2196L31.7309 16.5719ZM22.8945 25.8348L32.0858 16.5719L31.7309 16.2197L22.5396 25.4826L22.8945 25.8348ZM18.8311 22.1084L22.5399 25.8351L22.8943 25.4824L19.1855 21.7557L18.8311 22.1084ZM16.6774 24.6344L19.1857 22.1082L18.8309 21.7559L16.3226 24.2821L16.6774 24.6344Z" fill="black"/>
</svg>
