<svg width="492" height="349" viewBox="0 0 492 349" fill="none" xmlns="http://www.w3.org/2000/svg">
<g clip-path="url(#clip0_4_55)">
<path d="M311.791 0.171997H18.1301C15.3687 0.171997 13.1301 2.41058 13.1301 5.172V189.298C13.1301 192.06 15.3687 194.298 18.1301 194.298H311.791C314.553 194.298 316.791 192.06 316.791 189.298V5.172C316.791 2.41057 314.553 0.171997 311.791 0.171997Z" fill="#E6E6E6"/>
<path d="M309.101 24.5201H22.8062V182.813H309.101V24.5201Z" fill="white"/>
<path d="M316.661 0H13V12.8772H316.661V0Z" fill="#14D8FF"/>
<path d="M22.5872 8.97047C23.9078 8.97047 24.9784 7.90183 24.9784 6.58359C24.9784 5.26536 23.9078 4.19672 22.5872 4.19672C21.2666 4.19672 20.196 5.26536 20.196 6.58359C20.196 7.90183 21.2666 8.97047 22.5872 8.97047Z" fill="white"/>
<path d="M31.6628 8.97047C32.9834 8.97047 34.054 7.90183 34.054 6.58359C34.054 5.26536 32.9834 4.19672 31.6628 4.19672C30.3422 4.19672 29.2716 5.26536 29.2716 6.58359C29.2716 7.90183 30.3422 8.97047 31.6628 8.97047Z" fill="white"/>
<path d="M40.7385 8.97047C42.0591 8.97047 43.1297 7.90183 43.1297 6.58359C43.1297 5.26536 42.0591 4.19672 40.7385 4.19672C39.4179 4.19672 38.3473 5.26536 38.3473 6.58359C38.3473 7.90183 39.4179 8.97047 40.7385 8.97047Z" fill="white"/>
<path d="M72.8944 46.7069L53.9569 65.3741L72.8944 84.0408L77.1553 79.7876L62.8354 65.4916L77.275 51.0781L72.8944 46.7069Z" fill="#14D8FF"/>
<path d="M88.4111 46.7069L107.348 65.3741L88.4111 84.0408L84.1501 79.7876L98.4711 65.4921L84.0305 51.0781L88.4111 46.7069Z" fill="#14D8FF"/>
<path d="M149.666 51.3914C148.117 51.3914 146.861 52.2807 146.861 53.3773C146.861 54.4738 148.117 55.3631 149.666 55.3631H281.872C283.421 55.3631 284.676 54.4738 284.676 53.3773C284.676 52.2807 283.421 51.3914 281.872 51.3914H149.666Z" fill="#E6E6E6"/>
<path d="M280.557 160.191H58.1538C55.8803 160.191 54.0379 158.881 54.0354 157.266V118.084C54.0379 116.469 55.8803 115.159 58.1538 115.159H280.557C282.831 115.159 284.673 116.469 284.676 118.084V157.266C284.674 158.88 282.831 160.189 280.557 160.191ZM58.1538 116.328C56.7896 116.328 55.6842 117.114 55.6827 118.083V157.265C55.6827 158.233 56.7896 159.018 58.1538 159.019H280.557C281.921 159.019 283.027 158.233 283.028 157.265V118.084C283.028 117.115 281.921 116.33 280.557 116.329L58.1538 116.328Z" fill="#E6E6E6"/>
<path d="M81.0562 147.59C86.5515 147.59 91.0064 143.143 91.0064 137.658C91.0064 132.173 86.5515 127.726 81.0562 127.726C75.5609 127.726 71.106 132.173 71.106 137.658C71.106 143.143 75.5609 147.59 81.0562 147.59Z" fill="#E6E6E6"/>
<path d="M109.12 129.715C108.592 129.714 108.086 129.923 107.713 130.294C107.339 130.666 107.129 131.171 107.128 131.698C107.127 132.225 107.336 132.73 107.709 133.103C108.081 133.476 108.587 133.686 109.115 133.686H202.911C203.439 133.686 203.945 133.477 204.318 133.105C204.691 132.732 204.901 132.227 204.901 131.7C204.901 131.174 204.691 130.669 204.318 130.296C203.945 129.924 203.439 129.715 202.911 129.715H109.12Z" fill="#14D8FF"/>
<path d="M109.12 141.63C108.859 141.63 108.6 141.681 108.358 141.78C108.117 141.88 107.897 142.026 107.713 142.21C107.339 142.582 107.129 143.087 107.128 143.613C107.127 144.14 107.336 144.646 107.709 145.018C108.081 145.391 108.587 145.601 109.115 145.602H149.478C150.006 145.603 150.512 145.394 150.885 145.022C151.259 144.65 151.469 144.145 151.47 143.619C151.471 143.092 151.262 142.587 150.889 142.214C150.517 141.841 150.011 141.631 149.483 141.63H109.12Z" fill="#14D8FF"/>
<path d="M148.7 63.2886C148.2 63.3289 147.734 63.5555 147.394 63.9235C147.054 64.2915 146.865 64.7738 146.865 65.2745C146.865 65.7751 147.054 66.2575 147.394 66.6254C147.734 66.9934 148.2 67.2201 148.7 67.2603H235.345C235.845 67.2201 236.311 66.9934 236.651 66.6254C236.991 66.2575 237.18 65.7751 237.18 65.2745C237.18 64.7738 236.991 64.2915 236.651 63.9235C236.311 63.5555 235.845 63.3289 235.345 63.2886H148.7Z" fill="#E6E6E6"/>
<path d="M149.27 75.1858C147.94 75.1858 146.861 76.0751 146.861 77.1717C146.861 78.2682 147.94 79.1575 149.27 79.1575H262.846C264.177 79.1575 265.255 78.2682 265.255 77.1717C265.255 76.0751 264.177 75.1858 262.846 75.1858H149.27Z" fill="#E6E6E6"/>
<path d="M421.457 306.343L420.73 316.022L405.945 311.183L412.003 303.924L421.457 306.343Z" fill="#B47C7C"/>
<path d="M475.27 303.198L474.542 312.634L466.3 313.844L461.452 309.247L467.027 300.294L475.27 303.198Z" fill="#B47C7C"/>
<path d="M481.33 182.702C481.33 182.702 487.875 190.445 479.633 202.301C471.391 214.157 461.453 225.771 461.453 225.771L443.029 260.613C443.029 260.613 433.575 294.729 431.394 295.697C429.212 296.665 428 292.794 429.212 296.907C430.424 301.02 429.697 300.778 428.727 301.021C427.758 301.264 425.092 300.779 426.061 302.473C427.03 304.167 427.758 304.167 425.819 304.167C423.879 304.167 423.152 302.957 423.152 304.651C423.152 306.344 421.455 310.216 421.455 310.216C421.455 310.216 409.578 306.828 409.093 305.376C408.608 303.925 412.244 303.199 411.517 301.747C410.79 300.296 410.548 300.295 410.548 298.118C410.548 295.941 412.002 295.457 412.002 295.457C412.002 295.457 413.214 294.973 412.729 294.005C412.245 293.037 410.305 293.521 412.729 292.311C415.153 291.101 425.093 254.081 425.093 254.081C425.093 254.081 425.093 235.69 428.244 229.642C431.395 223.594 428.971 180.524 436.487 180.04C444.004 179.557 481.33 182.702 481.33 182.702Z" fill="#2F2E41"/>
<path d="M478.906 196.494L477.451 233.997C477.451 233.997 484.723 270.291 482.299 281.421C479.875 292.551 481.572 291.099 480.118 293.035C478.663 294.971 477.451 294.003 478.663 295.697C479.875 297.391 480.6 297.874 478.663 299.811C476.726 301.748 475.754 306.344 475.754 306.344L463.392 305.135C463.392 305.135 466.543 299.57 465.329 298.36C464.115 297.15 460.966 299.085 463.392 296.426C465.819 293.767 467.271 294.974 465.816 293.765C464.362 292.555 462.18 293.039 464.119 291.103C466.058 289.168 468.241 289.17 466.301 288.442C464.361 287.714 462.179 288.442 463.15 286.99C464.121 285.538 465.331 283.845 465.331 283.845L462.423 261.826C462.423 261.826 459.029 254.568 459.999 251.422C460.968 248.277 455.877 222.387 455.877 222.387L478.906 196.494Z" fill="#2F2E41"/>
<path d="M473.574 308.037C473.574 308.037 475.998 305.617 476.725 307.069C477.452 308.521 482.784 321.586 479.634 322.554C476.484 323.522 471.877 324.487 469.453 323.764C467.029 323.04 461.939 319.649 455.879 319.649C449.82 319.649 444.729 316.988 444.729 316.02C444.729 315.052 443.76 309.245 448.365 309.245C452.97 309.245 461.454 303.922 461.454 303.922C461.454 303.922 463.391 300.051 464.363 300.293C465.335 300.535 464.605 308.277 464.605 308.277C464.605 308.277 470.179 313.601 473.574 308.037Z" fill="#2F2E41"/>
<path d="M419.761 311.182C419.761 311.182 421.943 305.859 424.124 307.067C426.306 308.276 424.851 323.277 424.851 323.277C424.851 323.277 422.914 326.423 417.337 325.697C411.76 324.971 396.976 323.277 393.582 324.003C390.188 324.729 380.977 320.616 383.401 315.05C383.401 315.05 384.613 311.905 390.431 312.147C396.249 312.389 406.914 305.372 406.914 305.372C406.914 305.372 408.611 300.533 409.096 301.017C409.58 301.5 410.065 309.969 410.065 309.969C410.065 309.969 416.368 314.085 419.761 311.182Z" fill="#2F2E41"/>
<path d="M451.515 88.097C459.28 88.097 465.574 81.8138 465.574 74.0632C465.574 66.3126 459.28 60.0295 451.515 60.0295C443.75 60.0295 437.456 66.3126 437.456 74.0632C437.456 81.8138 443.75 88.097 451.515 88.097Z" fill="#B47C7C"/>
<path d="M462.423 75.0308C462.423 75.0308 469.937 90.0322 472.603 91.4841C475.27 92.9361 454.424 101.889 454.424 101.889C454.424 101.889 451.03 87.1293 446.909 83.984C442.789 80.8386 462.423 75.0308 462.423 75.0308Z" fill="#B47C7C"/>
<path d="M440.85 197.703L439.88 206.898C439.88 206.898 429.457 203.269 432.851 196.494L440.85 197.703Z" fill="#B47C7C"/>
<path d="M436.73 183.912C444.002 191.653 482.542 185.12 482.542 185.12L482.059 179.555L486.907 174.478L485.453 150.764C485.453 150.764 489.814 139.635 490.54 122.698C490.584 121.657 490.521 120.614 490.352 119.586C487.853 104.413 463.103 94.6414 462.423 94.8709C462.081 94.9834 458.438 96.8785 454.636 98.8723C450.271 101.161 445.7 103.582 445.7 103.582C439.881 105.763 440.852 140.605 438.911 143.75C436.97 146.895 438.911 157.779 438.911 157.779L436.731 168.182C436.731 168.182 429.456 176.171 436.73 183.912Z" fill="#F0F0F0"/>
<path opacity="0.1" d="M460.223 107.1C460.223 107.1 467.01 127.424 465.555 141.216C464.101 155.008 448.345 194.447 448.345 194.447L443.015 197.35V204.125L439.264 193.984L449.579 172.456C449.579 172.456 436.708 98.1476 460.223 107.1Z" fill="black"/>
<path opacity="0.1" d="M453.857 101.001C460.89 97.1309 471.556 107.297 482.706 118.181C486.71 122.089 489.026 121.696 490.353 119.585C487.854 104.413 463.104 94.6409 462.424 94.8704C462.082 94.9829 458.439 96.8781 454.637 98.8718L453.857 101.001Z" fill="black"/>
<path d="M453.861 99.1311L456.769 91.1466C456.769 91.1466 476.646 81.7101 489.735 91.1466L491.917 104.696C491.917 104.696 493.854 127.198 482.706 116.31C471.558 105.422 460.889 95.2595 453.861 99.1311Z" fill="#F0F0F0"/>
<path d="M459.515 103.824C459.515 103.824 466.302 124.148 464.847 137.94C463.393 151.732 447.637 191.171 447.637 191.171L442.304 194.077V200.852L431.154 197.706L433.578 189.722C433.578 189.722 429.7 184.883 432.367 183.431C435.033 181.979 434.548 173.994 434.548 173.994C434.548 173.994 436.002 94.8714 459.515 103.824Z" fill="#F0F0F0"/>
<path d="M464.049 79.938C463.819 78.8533 463.85 77.6864 463.33 76.7074C462.548 75.2396 460.753 74.6254 459.094 74.4806C456.976 74.2967 454.842 74.6625 452.721 74.5178C450.6 74.373 448.334 73.566 447.279 71.7244C446.857 70.9898 446.65 70.1247 446.091 69.4878C444.929 68.1622 442.809 68.3674 441.139 68.9355C439.468 69.5036 437.726 70.3334 436.018 69.8893C434.582 65.8784 436.35 61.2519 439.409 58.2821C442.467 55.3122 446.592 53.714 450.689 52.5228C456.093 50.9514 462.174 50.0229 467.142 52.6626C474.347 56.4901 476.889 66.621 476.224 74.1718C475.973 77.0261 475.562 80.2582 473.251 82.185C469.863 85.0096 465.072 84.7672 464.049 79.938Z" fill="#2F2E41"/>
</g>
<defs>
<clipPath id="clip0_4_55">
<rect width="492" height="349" fill="white"/>
</clipPath>
</defs>
</svg>
