<svg width="445" height="510" viewBox="0 0 445 510" fill="none" xmlns="http://www.w3.org/2000/svg">
<g clip-path="url(#clip0_111_100)">
<path d="M441 221.5C441 344.107 363.607 402 241 402C118.393 402 4 430.107 4 307.5C4 184.893 129.393 9 252 9C374.607 9 441 98.8928 441 221.5Z" fill="#14D8FF"/>
<path d="M445 566.278C445 443.67 367.607 385.778 245 385.778C122.393 385.778 8 357.67 8 480.278C8 602.885 133.393 778.778 256 778.778C378.607 778.778 445 688.885 445 566.278Z" fill="url(#paint0_linear_111_100)"/>
</g>
<path d="M90.616 90.676L81.904 140.5H68.152L61.24 101.548L53.968 140.5H40.576L31.936 90.676H42.52L48.208 132.292L55.768 90.676H66.928L74.2 132.292L80.608 90.676H90.616ZM123.217 140.5L120.409 129.34H104.785L101.977 140.5H90.9614L106.297 90.676H119.185L134.449 140.5H123.217ZM106.801 121.492H118.393L112.561 98.524L106.801 121.492ZM149.637 90.676V132.004H169.365L168.213 140.5H139.053V90.676H149.637ZM186.27 90.676V132.004H205.998L204.846 140.5H175.686V90.676H186.27ZM222.903 90.676V140.5H212.319V90.676H222.903ZM248.675 89.524C252.275 89.524 255.395 90.052 258.035 91.108C260.723 92.116 263.195 93.676 265.451 95.788L260.411 101.62C258.635 100.18 256.859 99.124 255.083 98.452C253.307 97.78 251.411 97.444 249.395 97.444C247.187 97.444 245.411 97.924 244.067 98.884C242.771 99.796 242.123 101.116 242.123 102.844C242.123 104.044 242.387 105.028 242.915 105.796C243.491 106.564 244.475 107.284 245.867 107.956C247.259 108.628 249.347 109.396 252.131 110.26C257.075 111.844 260.771 113.812 263.219 116.164C265.667 118.468 266.891 121.78 266.891 126.1C266.891 129.172 266.123 131.884 264.587 134.236C263.051 136.54 260.819 138.364 257.891 139.708C254.963 141.004 251.531 141.652 247.595 141.652C243.659 141.652 240.155 141.028 237.083 139.78C234.011 138.532 231.371 136.828 229.163 134.668L234.563 128.692C236.483 130.324 238.475 131.572 240.539 132.436C242.603 133.252 244.859 133.66 247.307 133.66C249.899 133.66 251.963 133.06 253.499 131.86C255.083 130.66 255.875 128.98 255.875 126.82C255.875 125.476 255.587 124.372 255.011 123.508C254.483 122.596 253.547 121.78 252.203 121.06C250.859 120.34 248.915 119.596 246.371 118.828C240.947 117.148 237.059 115.132 234.707 112.78C232.403 110.428 231.251 107.356 231.251 103.564C231.251 100.78 231.995 98.332 233.483 96.22C234.971 94.06 237.035 92.404 239.675 91.252C242.315 90.1 245.315 89.524 248.675 89.524ZM293.85 89.524C298.41 89.524 302.346 90.556 305.658 92.62C308.97 94.636 311.514 97.588 313.29 101.476C315.066 105.364 315.954 110.068 315.954 115.588C315.954 121.012 315.066 125.692 313.29 129.628C311.514 133.516 308.97 136.492 305.658 138.556C302.346 140.62 298.41 141.652 293.85 141.652C289.29 141.652 285.33 140.644 281.97 138.628C278.658 136.564 276.114 133.588 274.338 129.7C272.562 125.764 271.674 121.06 271.674 115.588C271.674 110.212 272.562 105.58 274.338 101.692C276.162 97.756 278.73 94.756 282.042 92.692C285.402 90.58 289.338 89.524 293.85 89.524ZM293.85 97.444C290.202 97.444 287.442 98.884 285.57 101.764C283.746 104.644 282.834 109.252 282.834 115.588C282.834 121.924 283.77 126.532 285.642 129.412C287.514 132.292 290.25 133.732 293.85 133.732C297.498 133.732 300.234 132.316 302.058 129.484C303.882 126.604 304.794 121.972 304.794 115.588C304.794 109.204 303.882 104.596 302.058 101.764C300.234 98.884 297.498 97.444 293.85 97.444ZM361.559 140.5H347.951L332.111 100.972C332.543 104.38 332.879 107.596 333.119 110.62C333.407 113.596 333.551 117.1 333.551 121.132V140.5H323.975V90.676H337.295L353.423 130.276C352.463 123.844 351.983 117.94 351.983 112.564V90.676H361.559V140.5ZM106.569 226.5V176.676H135.513L134.361 184.38H117.153V198.492H132.129V206.196H117.153V226.5H106.569ZM157.709 206.988H152.309V226.5H141.725V176.676H157.277C163.949 176.676 168.965 177.924 172.325 180.42C175.685 182.868 177.365 186.588 177.365 191.58C177.365 194.844 176.549 197.532 174.917 199.644C173.333 201.756 170.861 203.556 167.501 205.044L180.389 226.5H168.365L157.709 206.988ZM152.309 199.5H157.853C160.685 199.5 162.821 198.876 164.261 197.628C165.701 196.332 166.421 194.316 166.421 191.58C166.421 189.036 165.653 187.188 164.117 186.036C162.629 184.836 160.277 184.236 157.061 184.236H152.309V199.5ZM212.303 226.5L209.495 215.34H193.871L191.063 226.5H180.047L195.383 176.676H208.271L223.535 226.5H212.303ZM195.887 207.492H207.479L201.647 184.524L195.887 207.492ZM265.723 226.5H252.115L236.275 186.972C236.707 190.38 237.043 193.596 237.283 196.62C237.571 199.596 237.715 203.1 237.715 207.132V226.5H228.139V176.676H241.459L257.587 216.276C256.627 209.844 256.147 203.94 256.147 198.564V176.676H265.723V226.5ZM286.817 176.676V226.5H276.233V176.676H286.817ZM315.113 176.676L298.481 199.14L316.409 226.5H304.025L287.249 199.932L303.809 176.676H315.113ZM331.606 176.676V218.004H351.334L350.182 226.5H321.022V176.676H331.606ZM368.238 176.676V226.5H357.654V176.676H368.238ZM416.403 226.5H402.795L386.955 186.972C387.387 190.38 387.723 193.596 387.963 196.62C388.251 199.596 388.395 203.1 388.395 207.132V226.5H378.819V176.676H392.139L408.267 216.276C407.307 209.844 406.827 203.94 406.827 198.564V176.676H416.403V226.5Z" fill="#EEEEEE"/>
<path d="M236.407 250.708C239.319 250.708 241.652 251.389 243.407 252.752C245.18 254.096 246.067 256.597 246.067 260.256C246.067 263.821 245.18 266.341 243.407 267.816C241.652 269.272 239.515 270 236.995 270H232.375V250.708H236.407ZM235.035 252.836V267.9H237.191C238.983 267.9 240.439 267.349 241.559 266.248C242.679 265.147 243.239 263.149 243.239 260.256C243.239 258.221 242.949 256.663 242.371 255.58C241.792 254.479 241.055 253.751 240.159 253.396C239.263 253.023 238.208 252.836 236.995 252.836H235.035ZM261.398 262.188C261.398 262.617 261.38 263.056 261.342 263.504H251.934C252.046 265.128 252.457 266.323 253.166 267.088C253.876 267.853 254.79 268.236 255.91 268.236C256.62 268.236 257.273 268.133 257.87 267.928C258.468 267.723 259.093 267.396 259.746 266.948L260.866 268.488C259.298 269.72 257.581 270.336 255.714 270.336C253.661 270.336 252.056 269.664 250.898 268.32C249.76 266.976 249.19 265.128 249.19 262.776C249.19 261.245 249.433 259.892 249.918 258.716C250.422 257.521 251.132 256.588 252.046 255.916C252.98 255.244 254.072 254.908 255.322 254.908C257.282 254.908 258.785 255.552 259.83 256.84C260.876 258.128 261.398 259.911 261.398 262.188ZM258.85 261.432C258.85 259.976 258.561 258.865 257.982 258.1C257.404 257.335 256.536 256.952 255.378 256.952C253.269 256.952 252.121 258.501 251.934 261.6H258.85V261.432ZM276.239 255.244L271.227 270H268.119L263.023 255.244H265.823L269.687 267.704L273.523 255.244H276.239ZM278.735 266.444C279.295 266.444 279.761 266.631 280.135 267.004C280.508 267.377 280.695 267.835 280.695 268.376C280.695 268.917 280.508 269.384 280.135 269.776C279.761 270.149 279.295 270.336 278.735 270.336C278.193 270.336 277.736 270.149 277.363 269.776C276.989 269.384 276.803 268.917 276.803 268.376C276.803 267.835 276.989 267.377 277.363 267.004C277.736 266.631 278.193 266.444 278.735 266.444ZM292.339 270V250.708H302.587L302.279 252.836H294.999V259.416H301.299V261.516H294.999V270H292.339ZM311.381 254.908C311.904 254.908 312.389 254.964 312.837 255.076L312.361 257.596C311.913 257.484 311.484 257.428 311.073 257.428C310.158 257.428 309.421 257.764 308.861 258.436C308.301 259.108 307.862 260.153 307.545 261.572V270H304.969V255.244H307.181L307.433 258.24C307.825 257.139 308.357 256.308 309.029 255.748C309.701 255.188 310.485 254.908 311.381 254.908ZM320.466 254.908C322.538 254.908 324.143 255.599 325.282 256.98C326.439 258.361 327.018 260.237 327.018 262.608C327.018 264.139 326.757 265.492 326.234 266.668C325.711 267.825 324.955 268.731 323.966 269.384C322.977 270.019 321.801 270.336 320.438 270.336C318.366 270.336 316.751 269.645 315.594 268.264C314.437 266.883 313.858 265.007 313.858 262.636C313.858 261.105 314.119 259.761 314.642 258.604C315.165 257.428 315.921 256.523 316.91 255.888C317.899 255.235 319.085 254.908 320.466 254.908ZM320.466 256.98C317.909 256.98 316.63 258.865 316.63 262.636C316.63 266.388 317.899 268.264 320.438 268.264C322.977 268.264 324.246 266.379 324.246 262.608C324.246 258.856 322.986 256.98 320.466 256.98ZM338.218 254.908C339.562 254.908 340.607 255.309 341.354 256.112C342.119 256.915 342.502 258.016 342.502 259.416V270H339.926V259.78C339.926 258.735 339.73 257.997 339.338 257.568C338.946 257.139 338.367 256.924 337.602 256.924C336.818 256.924 336.127 257.148 335.53 257.596C334.932 258.044 334.372 258.688 333.85 259.528V270H331.274V255.244H333.486L333.71 257.428C334.232 256.644 334.876 256.028 335.642 255.58C336.426 255.132 337.284 254.908 338.218 254.908ZM355.128 269.328C354.157 270 353.056 270.336 351.824 270.336C350.573 270.336 349.593 269.981 348.884 269.272C348.193 268.544 347.848 267.499 347.848 266.136V257.232H345.272V255.244H347.848V251.912L350.424 251.604V255.244H353.924L353.644 257.232H350.424V266.024C350.424 266.789 350.555 267.349 350.816 267.704C351.096 268.04 351.553 268.208 352.188 268.208C352.767 268.208 353.42 268.012 354.148 267.62L355.128 269.328ZM355.696 262.328V260.144H363.62V262.328H355.696ZM378.553 250.708L378.245 252.836H370.769V259.136H377.265V261.264H370.769V267.872H378.777V270H368.109V250.708H378.553ZM389.624 254.908C390.968 254.908 392.013 255.309 392.76 256.112C393.525 256.915 393.908 258.016 393.908 259.416V270H391.332V259.78C391.332 258.735 391.136 257.997 390.744 257.568C390.352 257.139 389.773 256.924 389.008 256.924C388.224 256.924 387.533 257.148 386.936 257.596C386.339 258.044 385.779 258.688 385.256 259.528V270H382.68V255.244H384.892L385.116 257.428C385.639 256.644 386.283 256.028 387.048 255.58C387.832 255.132 388.691 254.908 389.624 254.908ZM410.51 249.308V270H408.242L407.99 267.956C407.505 268.703 406.898 269.291 406.17 269.72C405.442 270.131 404.63 270.336 403.734 270.336C401.98 270.336 400.608 269.645 399.618 268.264C398.648 266.883 398.162 265.025 398.162 262.692C398.162 261.18 398.396 259.836 398.862 258.66C399.329 257.484 400.001 256.569 400.878 255.916C401.756 255.244 402.782 254.908 403.958 254.908C405.47 254.908 406.796 255.515 407.934 256.728V249L410.51 249.308ZM404.294 268.292C405.078 268.292 405.75 268.115 406.31 267.76C406.87 267.387 407.412 266.836 407.934 266.108V258.884C407.449 258.249 406.926 257.773 406.366 257.456C405.825 257.12 405.209 256.952 404.518 256.952C403.38 256.952 402.493 257.428 401.858 258.38C401.242 259.332 400.934 260.751 400.934 262.636C400.934 264.54 401.224 265.959 401.802 266.892C402.381 267.825 403.212 268.292 404.294 268.292Z" fill="#EEEEEE"/>
<defs>
<linearGradient id="paint0_linear_111_100" x1="227" y1="471.5" x2="226.5" y2="383" gradientUnits="userSpaceOnUse">
<stop stop-color="#14D8FF" stop-opacity="0"/>
<stop offset="0.520833" stop-color="#14D8FF" stop-opacity="0.401042"/>
<stop offset="1" stop-color="#14D8FF"/>
</linearGradient>
<clipPath id="clip0_111_100">
<rect width="445" height="510" fill="white"/>
</clipPath>
</defs>
</svg>
