<svg width="34" height="30" viewBox="0 0 34 30" fill="none" xmlns="http://www.w3.org/2000/svg">
<path d="M33.9257 11.7935C33.9257 21.5187 25.8254 29.9852 16.8677 29.9992C15.8016 30.0008 0.343018 30.2501 0.343018 20.5249C0.343018 10.7997 6.89041 0.322339 16.7613 0.322339C26.6321 0.322339 33.9257 2.06823 33.9257 11.7935Z" fill="#14D8FF"/>
<path fill-rule="evenodd" clip-rule="evenodd" d="M24.1633 7.74176H10.1054C9.13893 7.74176 8.35696 8.53251 8.35696 9.49899L8.34818 20.0424C8.34818 21.0089 9.13893 21.7996 10.1054 21.7996H24.1633C25.1297 21.7996 25.9205 21.0089 25.9205 20.0424V9.49899C25.9205 8.53251 25.1297 7.74176 24.1633 7.74176ZM10.1054 11.2562L17.1343 15.6493L24.1633 11.2562V20.0424H10.1054V11.2562ZM10.1054 9.49899L17.1343 13.8921L24.1633 9.49899H10.1054Z" fill="white"/>
</svg>
