<svg width="34" height="30" viewBox="0 0 34 30" fill="none" xmlns="http://www.w3.org/2000/svg">
<path d="M33.9257 11.4711C33.9257 21.1964 25.8254 29.6629 16.8677 29.6769C15.8016 29.6785 0.343018 29.9278 0.343018 20.2026C0.343018 10.4774 6.89041 1.20494e-05 16.7613 1.20494e-05C26.6321 1.20494e-05 33.9257 1.74591 33.9257 11.4711Z" fill="#14D8FF"/>
<path d="M5.80997 23.4328C7.37867 26.0412 9.85664 28.0486 12.8098 29.0244C13.4545 29.1414 13.6895 28.7464 13.6895 28.4072C13.6895 28.2668 13.6871 28.0186 13.6839 27.6866C13.6802 27.302 13.6755 26.8049 13.6721 26.2322C10.0876 27.0049 9.33133 24.5174 9.33133 24.5174C8.74513 23.0404 7.90024 22.647 7.90024 22.647C6.73021 21.8532 7.98884 21.8689 7.98884 21.8689C9.28229 21.96 9.96263 23.1872 9.96263 23.1872C11.1121 25.1416 12.9791 24.577 13.7132 24.2504C13.8303 23.4236 14.1626 22.8598 14.5312 22.5402C11.6698 22.2175 8.66127 21.1198 8.66127 16.2186C8.66127 14.8225 9.16362 13.6809 9.98794 12.7865C9.85504 12.463 9.41282 11.1627 10.1137 9.40153C10.1137 9.40153 11.1959 9.05761 13.6578 10.7128C14.6855 10.4293 15.7883 10.2872 16.8839 10.2825C17.978 10.2872 19.0808 10.4293 20.11 10.7128C22.5703 9.05761 23.6502 9.40153 23.6502 9.40153C24.3535 11.1627 23.9112 12.463 23.7783 12.7865C24.6042 13.6809 25.1034 14.8225 25.1034 16.2186C25.1034 21.1324 22.0901 22.2136 19.2192 22.53C19.682 22.925 20.0942 23.7055 20.0942 24.899C20.0942 26.0421 20.0871 27.0378 20.0824 27.6974C20.0801 28.0241 20.0784 28.2683 20.0784 28.4072C20.0784 28.7496 20.3102 29.1477 20.9644 29.0228C23.3169 28.2434 25.3676 26.8097 26.8967 24.939C24.5341 27.83 20.9262 29.6777 16.8835 29.6777C12.1765 29.6777 8.05887 27.1728 5.80997 23.4328Z" fill="white"/>
</svg>
