<svg width="34" height="30" viewBox="0 0 34 30" fill="none" xmlns="http://www.w3.org/2000/svg">
<path d="M33.9257 11.5786C33.9257 21.3038 25.8254 29.7704 16.8677 29.7843C15.8016 29.786 0.343018 30.0353 0.343018 20.31C0.343018 10.5848 6.89041 0.107464 16.7613 0.107464C26.6321 0.107464 33.9257 1.85336 33.9257 11.5786Z" fill="#14D8FF"/>
<path fill-rule="evenodd" clip-rule="evenodd" d="M13.2648 8.05341C13.2648 8.97911 12.56 9.72826 11.4577 9.72826C10.3984 9.72826 9.69358 8.97911 9.7154 8.05341C9.69358 7.08271 10.3984 6.35538 11.4789 6.35538C12.56 6.35538 13.2437 7.08271 13.2648 8.05341ZM9.80402 21.834V11.0514H13.1551V21.8333H9.80402V21.834Z" fill="white"/>
<path fill-rule="evenodd" clip-rule="evenodd" d="M15.8411 14.4925C15.8411 13.1476 15.7968 12.001 15.7525 11.0528H18.6632L18.8179 12.53H18.8841C19.3251 11.8463 20.4273 10.8108 22.2133 10.8108C24.4178 10.8108 26.0716 12.2662 26.0716 15.44V21.8354H22.7205V15.8599C22.7205 14.47 22.2358 13.5225 21.0231 13.5225C20.0967 13.5225 19.546 14.1619 19.3258 14.7788C19.2372 14.9997 19.1935 15.3078 19.1935 15.6172V21.8354H15.8424V14.4925H15.8411Z" fill="white"/>
</svg>
