<svg width="40" height="40" viewBox="0 0 40 40" fill="none" xmlns="http://www.w3.org/2000/svg">
<path d="M35.9256 16.686C35.9256 26.4112 27.8254 34.8778 18.8677 34.8917C17.8016 34.8934 2.34299 35.1427 2.34299 25.4175C2.34299 15.6922 8.89038 5.21489 18.7612 5.21489C28.6321 5.21489 35.9256 6.96078 35.9256 16.686Z" fill="#14D8FF"/>
<path d="M10.8076 28.6446L12.0765 24.0321C11.2937 22.6823 10.8821 21.1508 10.8826 19.5823C10.8845 14.6746 14.8967 10.6818 19.8264 10.6818C22.2191 10.6829 24.4648 11.6098 26.1531 13.2923C27.8419 14.9747 28.7714 17.211 28.7705 19.5892C28.7684 24.4971 24.756 28.4903 19.8269 28.4903C19.8264 28.4903 19.827 28.4903 19.8269 28.4903H19.8229C18.3261 28.4897 16.8552 28.1158 15.549 27.407L10.8076 28.6446Z" fill="#70CF6D"/>
<path d="M10.1529 29.3756L11.5223 24.3751C10.6776 22.9115 10.2333 21.2514 10.2339 19.5505C10.2361 14.2297 14.5661 9.90082 19.8868 9.90082C22.4687 9.9019 24.8923 10.9069 26.7148 12.7309C28.5371 14.555 29.5404 16.9796 29.5395 19.5583C29.5371 24.879 25.2065 29.2085 19.8868 29.2085C19.8864 29.2085 19.8869 29.2085 19.8868 29.2085H19.8826C18.2671 29.2079 16.6798 28.8027 15.27 28.0337L10.1529 29.3756ZM15.507 26.2868L15.8001 26.4605C17.0317 27.1914 18.4437 27.5779 19.8837 27.5787H19.8868C24.3086 27.5787 27.9077 23.9803 27.9095 19.5577C27.9103 17.4144 27.0767 15.399 25.5619 13.883C24.047 12.367 22.0328 11.5317 19.8897 11.5307C15.4643 11.5307 11.8654 15.1287 11.8637 19.5512C11.863 21.0667 12.287 22.5425 13.0902 23.8197L13.2811 24.1232L12.4704 27.0829L15.507 26.2868Z" fill="white"/>
<path fill-rule="evenodd" clip-rule="evenodd" d="M17.4742 15.5164C17.2936 15.1147 17.1033 15.1067 16.9314 15.0997C16.7908 15.0936 16.6299 15.0939 16.4693 15.0939C16.3085 15.0939 16.0472 15.1545 15.8262 15.3958C15.605 15.6371 14.9818 16.2206 14.9818 17.4073C14.9818 18.5942 15.8462 19.7408 15.9668 19.9019C16.0874 20.0628 17.6353 22.5759 20.0868 23.5427C22.1242 24.3463 22.5387 24.1865 22.981 24.1463C23.4233 24.1061 24.4079 23.5628 24.6089 22.9996C24.81 22.4364 24.81 21.9538 24.7496 21.8528C24.6893 21.7524 24.5285 21.692 24.2873 21.5714C24.0462 21.4508 22.8604 20.8672 22.6393 20.7868C22.4181 20.7062 22.2574 20.6662 22.0966 20.9077C21.9357 21.1488 21.4738 21.692 21.3331 21.8528C21.1923 22.014 21.0516 22.0342 20.8104 21.9134C20.5693 21.7926 19.7924 21.538 18.8709 20.7163C18.1539 20.0771 17.6698 19.2875 17.529 19.0461C17.3884 18.8049 17.5267 18.6857 17.635 18.554C17.8301 18.3167 18.1574 17.8901 18.2377 17.7293C18.3181 17.5682 18.2779 17.4275 18.2177 17.3067C18.1574 17.1862 17.6885 15.9934 17.4742 15.5164Z" fill="white"/>
</svg>
