<svg width="34" height="30" viewBox="0 0 34 30" fill="none" xmlns="http://www.w3.org/2000/svg">
<path d="M33.9257 11.686C33.9257 21.4112 25.8254 29.8778 16.8677 29.8917C15.8016 29.8934 0.343018 30.1427 0.343018 20.4175C0.343018 10.6922 6.89041 0.214886 16.7613 0.214886C26.6321 0.214886 33.9257 1.96078 33.9257 11.686Z" fill="#14D8FF"/>
<path d="M8.80768 23.6446L10.0766 19.0321C9.29369 17.6823 8.88215 16.1508 8.8826 14.5823C8.88454 9.67456 12.8967 5.68182 17.8265 5.68182C20.2192 5.68286 22.4649 6.60984 24.1532 8.29225C25.8419 9.97466 26.7714 12.211 26.7705 14.5892C26.7684 19.4971 22.756 23.4903 17.8269 23.4903C17.8265 23.4903 17.8271 23.4903 17.8269 23.4903H17.8229C16.3261 23.4897 14.8553 23.1158 13.549 22.407L8.80768 23.6446Z" fill="#70CF6D"/>
<path d="M8.15292 24.3756L9.52228 19.3751C8.67761 17.9115 8.23331 16.2514 8.23393 14.5505C8.2361 9.22971 12.5661 4.90082 17.8868 4.90082C20.4688 4.9019 22.8923 5.90688 24.7148 7.73093C26.5371 9.55497 27.5404 11.9796 27.5395 14.5583C27.5372 19.879 23.2066 24.2085 17.8868 24.2085C17.8865 24.2085 17.8869 24.2085 17.8868 24.2085H17.8826C16.2671 24.2079 14.6799 23.8027 13.27 23.0337L8.15292 24.3756ZM13.507 21.2868L13.8001 21.4605C15.0317 22.1914 16.4437 22.5779 17.8837 22.5787H17.8868C22.3086 22.5787 25.9077 18.9803 25.9096 14.5577C25.9103 12.4144 25.0767 10.399 23.5619 8.88302C22.047 7.36702 20.0328 6.53166 17.8897 6.53073C13.4643 6.53073 9.8654 10.1287 9.86369 14.5512C9.86307 16.0667 10.287 17.5425 11.0903 18.8197L11.2812 19.1232L10.4705 22.0829L13.507 21.2868Z" fill="white"/>
<path fill-rule="evenodd" clip-rule="evenodd" d="M15.4743 10.5164C15.2936 10.1147 15.1034 10.1067 14.9314 10.0997C14.7908 10.0936 14.6299 10.0939 14.4693 10.0939C14.3085 10.0939 14.0472 10.1545 13.8262 10.3958C13.6051 10.6371 12.9818 11.2206 12.9818 12.4073C12.9818 13.5942 13.8462 14.7408 13.9668 14.9019C14.0874 15.0628 15.6354 17.5759 18.0868 18.5427C20.1242 19.3463 20.5387 19.1865 20.981 19.1463C21.4233 19.1061 22.4079 18.5628 22.6089 17.9996C22.81 17.4364 22.81 16.9538 22.7497 16.8528C22.6893 16.7524 22.5285 16.692 22.2874 16.5714C22.0462 16.4508 20.8604 15.8672 20.6393 15.7868C20.4182 15.7062 20.2574 15.6662 20.0966 15.9077C19.9357 16.1488 19.4739 16.692 19.3331 16.8528C19.1923 17.014 19.0516 17.0342 18.8104 16.9134C18.5693 16.7926 17.7924 16.538 16.8709 15.7163C16.154 15.0771 15.6698 14.2875 15.529 14.0461C15.3885 13.8049 15.5267 13.6857 15.635 13.554C15.8301 13.3167 16.1574 12.8901 16.2378 12.7293C16.3182 12.5682 16.278 12.4275 16.2178 12.3067C16.1574 12.1862 15.6886 10.9934 15.4743 10.5164V10.5164Z" fill="white"/>
</svg>
